REM DIRINDEX 1\2,1\3,1\4
REM DIRNAME folder01,folder02,folder03,folder04
TITLE ""
FILE "048 048_TOEFL_3900.mp3" MP3
  TRACK 01 AUDIO
    TITLE "2:cjc151_2057"
    INDEX 01 00:00:00
  TRACK 02 AUDIO
    TITLE "0:"
    INDEX 01 00:01:07
  TRACK 03 AUDIO
    TITLE "3:cjc151_2058"
    INDEX 01 00:02:57
  TRACK 04 AUDIO
    TITLE "0:"
    INDEX 01 00:06:08
  TRACK 05 AUDIO
    TITLE "2:cjc151_2059"
    INDEX 01 00:07:60
  TRACK 06 AUDIO
    TITLE "0:"
    INDEX 01 00:08:64
  TRACK 07 AUDIO
    TITLE "3:cjc151_2060"
    INDEX 01 00:10:43
  TRACK 08 AUDIO
    TITLE "0:"
    INDEX 01 00:13:53
  TRACK 09 AUDIO
    TITLE "2:cjc151_2061"
    INDEX 01 00:15:34
  TRACK 10 AUDIO
    TITLE "0:"
    INDEX 01 00:16:42
  TRACK 11 AUDIO
    TITLE "3:cjc151_2062"
    INDEX 01 00:18:21
  TRACK 12 AUDIO
    TITLE "0:"
    INDEX 01 00:21:25
  TRACK 13 AUDIO
    TITLE "2:cjc151_2063"
    INDEX 01 00:23:03
  TRACK 14 AUDIO
    TITLE "0:"
    INDEX 01 00:24:04
  TRACK 15 AUDIO
    TITLE "3:cjc151_2064"
    INDEX 01 00:25:58
  TRACK 16 AUDIO
    TITLE "0:"
    INDEX 01 00:28:60
  TRACK 17 AUDIO
    TITLE "2:cjc151_2065"
    INDEX 01 00:30:40
  TRACK 18 AUDIO
    TITLE "0:"
    INDEX 01 00:31:41
  TRACK 19 AUDIO
    TITLE "3:cjc151_2066"
    INDEX 01 00:33:21
  TRACK 20 AUDIO
    TITLE "0:"
    INDEX 01 00:36:13
  TRACK 21 AUDIO
    TITLE "2:cjc151_2067"
    INDEX 01 00:37:71
  TRACK 22 AUDIO
    TITLE "0:"
    INDEX 01 00:39:00
  TRACK 23 AUDIO
    TITLE "3:cjc151_2068"
    INDEX 01 00:40:50
  TRACK 24 AUDIO
    TITLE "0:"
    INDEX 01 00:44:56
  TRACK 25 AUDIO
    TITLE "2:cjc151_2069"
    INDEX 01 00:46:33
  TRACK 26 AUDIO
    TITLE "0:"
    INDEX 01 00:47:48
  TRACK 27 AUDIO
    TITLE "3:cjc151_2070"
    INDEX 01 00:49:25
  TRACK 28 AUDIO
    TITLE "0:"
    INDEX 01 00:53:53
  TRACK 29 AUDIO
    TITLE "2:cjc151_2071"
    INDEX 01 00:55:30
  TRACK 30 AUDIO
    TITLE "0:"
    INDEX 01 00:56:39
  TRACK 31 AUDIO
    TITLE "3:cjc151_2072"
    INDEX 01 00:58:17
  TRACK 32 AUDIO
    TITLE "0:"
    INDEX 01 01:02:38
  TRACK 33 AUDIO
    TITLE "2:cjc151_2073"
    INDEX 01 01:04:29
  TRACK 34 AUDIO
    TITLE "0:"
    INDEX 01 01:05:48
  TRACK 35 AUDIO
    TITLE "3:cjc151_2074"
    INDEX 01 01:07:27
  TRACK 36 AUDIO
    TITLE "0:"
    INDEX 01 01:11:43
  TRACK 37 AUDIO
    TITLE "2:cjc151_2075"
    INDEX 01 01:13:20
  TRACK 38 AUDIO
    TITLE "0:"
    INDEX 01 01:14:25
  TRACK 39 AUDIO
    TITLE "3:cjc151_2076"
    INDEX 01 01:16:03
  TRACK 40 AUDIO
    TITLE "0:"
    INDEX 01 01:19:34
  TRACK 41 AUDIO
    TITLE "2:cjc151_2077"
    INDEX 01 01:21:14
  TRACK 42 AUDIO
    TITLE "0:"
    INDEX 01 01:22:21
  TRACK 43 AUDIO
    TITLE "3:cjc151_2078"
    INDEX 01 01:24:00
  TRACK 44 AUDIO
    TITLE "0:"
    INDEX 01 01:27:18
  TRACK 45 AUDIO
    TITLE "2:cjc151_2079"
    INDEX 01 01:28:72
  TRACK 46 AUDIO
    TITLE "0:"
    INDEX 01 01:29:68
  TRACK 47 AUDIO
    TITLE "3:cjc151_2080"
    INDEX 01 01:31:49
  TRACK 48 AUDIO
    TITLE "0:"
    INDEX 01 01:35:49
  TRACK 49 AUDIO
    TITLE "2:cjc151_2081"
    INDEX 01 01:37:28
  TRACK 50 AUDIO
    TITLE "0:"
    INDEX 01 01:38:43
  TRACK 51 AUDIO
    TITLE "3:cjc151_2082"
    INDEX 01 01:40:21
  TRACK 52 AUDIO
    TITLE "0:"
    INDEX 01 01:43:13
  TRACK 53 AUDIO
    TITLE "2:cjc151_2083"
    INDEX 01 01:44:70
  TRACK 54 AUDIO
    TITLE "0:"
    INDEX 01 01:45:71
  TRACK 55 AUDIO
    TITLE "3:cjc151_2084"
    INDEX 01 01:47:48
  TRACK 56 AUDIO
    TITLE "0:"
    INDEX 01 01:51:13
  TRACK 57 AUDIO
    TITLE "2:cjc151_2085"
    INDEX 01 01:52:69
  TRACK 58 AUDIO
    TITLE "0:"
    INDEX 01 01:53:70
  TRACK 59 AUDIO
    TITLE "3:cjc151_2086"
    INDEX 01 01:55:48
  TRACK 60 AUDIO
    TITLE "0:"
    INDEX 01 01:59:42
  TRACK 61 AUDIO
    TITLE "2:cjc151_2087"
    INDEX 01 02:01:21
  TRACK 62 AUDIO
    TITLE "0:"
    INDEX 01 02:02:17
  TRACK 63 AUDIO
    TITLE "3:cjc151_2088"
    INDEX 01 02:03:71
  TRACK 64 AUDIO
    TITLE "0:"
    INDEX 01 02:07:47
  TRACK 65 AUDIO
    TITLE "2:cjc151_2089"
    INDEX 01 02:09:26
  TRACK 66 AUDIO
    TITLE "0:"
    INDEX 01 02:10:28
  TRACK 67 AUDIO
    TITLE "3:cjc151_2090"
    INDEX 01 02:12:05
  TRACK 68 AUDIO
    TITLE "0:"
    INDEX 01 02:15:09
  TRACK 69 AUDIO
    TITLE "2:cjc151_2091"
    INDEX 01 02:16:64
  TRACK 70 AUDIO
    TITLE "0:"
    INDEX 01 02:17:63
  TRACK 71 AUDIO
    TITLE "3:cjc151_2092"
    INDEX 01 02:19:40
  TRACK 72 AUDIO
    TITLE "0:"
    INDEX 01 02:23:32
  TRACK 73 AUDIO
    TITLE "2:cjc151_2093"
    INDEX 01 02:25:25
  TRACK 74 AUDIO
    TITLE "0:"
    INDEX 01 02:26:33
  TRACK 75 AUDIO
    TITLE "3:cjc151_2094"
    INDEX 01 02:28:10
  TRACK 76 AUDIO
    TITLE "0:"
    INDEX 01 02:31:73
  TRACK 77 AUDIO
    TITLE "2:cjc151_2095"
    INDEX 01 02:33:50
  TRACK 78 AUDIO
    TITLE "0:"
    INDEX 01 02:34:58
  TRACK 79 AUDIO
    TITLE "3:cjc151_2096"
    INDEX 01 02:36:37
  TRACK 80 AUDIO
    TITLE "0:"
    INDEX 01 02:40:35
  TRACK 81 AUDIO
    TITLE "2:cjc151_2097"
    INDEX 01 02:42:12
  TRACK 82 AUDIO
    TITLE "0:"
    INDEX 01 02:43:17
  TRACK 83 AUDIO
    TITLE "3:cjc151_2098"
    INDEX 01 02:44:68
  TRACK 84 AUDIO
    TITLE "0:"
    INDEX 01 02:48:44
  TRACK 85 AUDIO
    TITLE "2:cjc151_2099"
    INDEX 01 02:50:23
  TRACK 86 AUDIO
    TITLE "0:"
    INDEX 01 02:51:23
  TRACK 87 AUDIO
    TITLE "3:cjc151_2100"
    INDEX 01 02:53:02
  TRACK 88 AUDIO
    TITLE "0:"
    INDEX 01 02:57:10
